<svg width="1644" height="582" viewBox="0 0 1644 582" fill="none" xmlns="http://www.w3.org/2000/svg">
<g clip-path="url(#clip0)">
<g clip-path="url(#clip1)">
<path d="M427.59 240.039L457.672 238.133C457.723 238.129 457.777 238.125 457.832 238.121C479.27 236.312 498.512 225.082 510.629 207.301L534.41 172.41C555.109 142.035 563.129 105.348 556.984 69.1094C555.777 61.9922 552.137 55.4336 546.738 50.6484C541.336 45.8594 534.391 43.0312 527.18 42.6875C490.453 40.9297 455.004 53.293 427.332 77.4844L395.543 105.277C379.344 119.438 370.5 139.887 371.273 161.391C371.277 161.441 371.277 161.496 371.281 161.551L372.996 191.641C373.664 203.371 369.363 214.945 361.219 223.375L112.867 478.508C106.219 485.441 102.785 494.953 103.203 505.293C103.664 516.676 108.887 527.855 117.176 535.203C124.664 541.84 134.957 545.621 145.246 545.621C146.348 545.621 147.449 545.578 148.547 545.488C158.863 544.664 167.898 540.117 174.016 532.641L397.48 255.555C404.891 246.438 415.867 240.781 427.59 240.039ZM385.551 245.898L162.105 522.961C158.691 527.133 153.441 529.703 147.324 530.191C140.047 530.773 132.586 528.352 127.359 523.719C122.133 519.082 118.836 511.965 118.543 504.672C118.293 498.543 120.211 493.023 123.906 489.172L372.238 234.059C383.371 222.539 389.23 206.762 388.324 190.77L386.609 160.758C386.027 143.926 392.961 127.922 405.645 116.832L437.434 89.0391C462.105 67.4727 493.723 56.4609 526.449 58.0156C530.176 58.1953 533.762 59.6562 536.555 62.1328C539.348 64.6055 541.227 67.9961 541.852 71.6719C547.328 103.98 540.18 136.684 521.727 163.762L497.945 198.656C488.457 212.578 473.398 221.379 456.617 222.82L426.617 224.719C410.633 225.734 395.672 233.445 385.551 245.898Z" fill="#F97B06"/>
<path d="M544.82 476.57L378.301 324.902C375.168 322.047 370.316 322.273 367.457 325.406C364.605 328.539 364.832 333.395 367.965 336.25L534.441 487.883C538.402 491.543 540.648 496.937 540.77 503.07C540.914 510.367 538.051 517.668 533.109 522.609C528.172 527.547 520.883 530.418 513.57 530.27C507.437 530.148 502.043 527.902 498.422 523.984L350.039 361.078C347.184 357.941 342.328 357.719 339.195 360.57C336.062 363.426 335.836 368.281 338.691 371.414L487.109 534.359C493.633 541.414 502.922 545.414 513.27 545.617C513.539 545.621 513.805 545.625 514.074 545.625C525.195 545.625 536.316 541.113 543.961 533.465C551.797 525.629 556.34 514.156 556.113 502.77C555.91 492.422 551.914 483.133 544.82 476.57Z" fill="#F97B06"/>
<path d="M139.609 238.586C152.312 250.289 168.816 256.961 186.082 257.375C186.137 257.379 186.191 257.379 186.242 257.379L216.383 257.473C228.133 257.508 239.426 262.496 247.352 271.133L260.629 285.707C262.145 287.371 264.219 288.215 266.305 288.215C268.148 288.215 270 287.555 271.469 286.215C274.605 283.359 274.832 278.504 271.977 275.371L258.68 260.777C247.852 248.973 232.453 242.176 216.434 242.121L186.375 242.027C173.02 241.688 160.25 236.574 150.355 227.617L63.0078 123.781C62.1172 122.719 62.1836 121.18 63.164 120.199C63.8359 119.523 64.625 119.426 65.0351 119.426C65.4453 119.426 66.2344 119.523 66.9101 120.199L146.418 199.711C154.277 207.57 167.066 207.57 174.926 199.707L184.27 190.367V190.363L200.859 173.773C200.859 173.773 200.863 173.773 200.863 173.77L200.867 173.766L210.207 164.426C218.066 156.566 218.066 143.777 210.207 135.918L130.699 56.4102C129.668 55.3789 129.668 53.6953 130.699 52.6641C131.68 51.6836 133.219 51.6172 134.281 52.5078L238.117 139.859C247.078 149.75 252.191 162.523 252.531 175.875L252.621 205.938C252.676 221.953 259.477 237.352 271.297 248.203L285.523 261.16C288.66 264.016 293.512 263.789 296.367 260.656C299.219 257.52 298.992 252.668 295.859 249.812L281.656 236.875C272.996 228.93 268.012 217.633 267.973 205.887L267.879 175.746C267.879 175.691 267.879 175.637 267.875 175.582C267.461 158.316 260.789 141.813 249.086 129.109C248.867 128.871 248.633 128.645 248.383 128.434L144.16 40.7617C136.957 34.6992 126.504 35.1523 119.848 41.8086C112.828 48.8281 112.828 60.2461 119.848 67.2617L199.355 146.773C201.23 148.648 201.23 151.699 199.355 153.574L195.437 157.488L106.824 68.8789C103.828 65.8789 98.9687 65.8789 95.9726 68.8789C92.9765 71.875 92.9765 76.7344 95.9726 79.7305L184.586 168.344L178.844 174.082L90.2305 85.4727C87.2344 82.4766 82.375 82.4766 79.3789 85.4727C76.3789 88.4688 76.3789 93.3281 79.3789 96.3242L167.988 184.938L164.074 188.855C162.199 190.73 159.148 190.73 157.273 188.855L77.7617 109.348C74.3633 105.949 69.8437 104.074 65.0351 104.074C60.2265 104.074 55.707 105.949 52.3086 109.348C45.6523 116.004 45.2031 126.457 51.2617 133.664L138.937 237.883C139.145 238.133 139.371 238.367 139.609 238.586Z" fill="#F97B06"/>
</g>
<path d="M918.84 172.72C924.813 173.573 928.867 175.387 931 178.16C933.347 180.933 934.52 184.56 934.52 189.04C934.52 203.76 926.627 210.587 910.84 209.52L899.64 208.56C887.053 207.493 874.467 206.64 861.88 206C849.507 205.36 836.493 205.04 822.84 205.04H808.44C805.88 236.613 803.213 265.413 800.44 291.44L855.48 290.48C863.373 290.48 868.6 291.867 871.16 294.64C873.933 297.413 875.32 301.147 875.32 305.84C875.32 313.093 873.187 318.853 868.92 323.12C864.653 327.173 858.573 329.2 850.68 329.2H795.96L794.04 342.96C789.56 378.16 779.96 403.227 765.24 418.16C750.733 433.093 730.68 440.56 705.08 440.56C690.573 440.56 677.24 437.467 665.08 431.28C652.92 424.88 643.96 417.2 638.2 408.24C635.853 404.613 634.68 400.24 634.68 395.12C634.68 390 635.853 385.52 638.2 381.68C640.76 377.84 643.853 375.92 647.48 375.92C650.04 375.92 652.493 376.773 654.84 378.48C657.4 380.187 660.6 383.493 664.44 388.4C674.68 401.84 687.373 408.56 702.52 408.56C714.68 408.56 724.813 403.653 732.92 393.84C741.24 383.813 746.573 368.133 748.92 346.8L750.84 329.2H735.48C730.573 329.2 726.307 327.813 722.68 325.04C719.267 322.267 717.56 318.32 717.56 313.2C717.56 306.587 719.267 301.573 722.68 298.16C726.093 294.533 731.107 292.72 737.72 292.72C743.693 292.72 749.56 292.613 755.32 292.4C757.88 268.933 760.653 240.453 763.64 206.96C740.6 209.093 724.387 212.827 715 218.16C705.613 223.493 700.92 231.387 700.92 241.84C700.92 249.093 703.053 256.027 707.32 262.64C708.6 264.56 709.24 266.48 709.24 268.4C709.24 272.24 707.107 275.653 702.84 278.64C698.573 281.413 693.773 282.8 688.44 282.8C682.68 282.8 677.773 281.093 673.72 277.68C671.16 275.547 668.707 271.173 666.36 264.56C664.013 257.947 662.84 250.587 662.84 242.48C662.84 216.027 676.387 196.827 703.48 184.88C730.787 172.933 770.573 166.96 822.84 166.96C859.107 166.96 891.107 168.88 918.84 172.72ZM1038.25 339.76C1041.02 339.76 1043.15 341.147 1044.65 343.92C1046.14 346.693 1046.89 350.213 1046.89 354.48C1046.89 364.72 1043.79 370.8 1037.61 372.72C1024.81 377.2 1010.73 379.76 995.368 380.4C991.314 398.32 983.314 412.72 971.368 423.6C959.421 434.267 945.874 439.6 930.728 439.6C917.928 439.6 906.941 436.507 897.768 430.32C888.808 424.133 881.981 415.92 877.288 405.68C872.594 395.44 870.247 384.347 870.247 372.4C870.247 356.187 873.341 341.787 879.528 329.2C885.714 316.4 894.248 306.48 905.128 299.44C916.008 292.187 928.061 288.56 941.288 288.56C957.501 288.56 970.514 294.213 980.328 305.52C990.354 316.613 996.221 330.373 997.928 346.8C1007.95 346.16 1019.9 344.027 1033.77 340.4C1035.47 339.973 1036.97 339.76 1038.25 339.76ZM933.288 405.68C940.114 405.68 945.981 402.907 950.888 397.36C956.008 391.813 959.421 383.813 961.128 373.36C954.514 368.88 949.394 363.013 945.768 355.76C942.354 348.507 940.648 340.827 940.648 332.72C940.648 329.307 940.968 325.893 941.608 322.48H940.008C931.474 322.48 924.328 326.64 918.568 334.96C913.021 343.067 910.248 354.587 910.248 369.52C910.248 381.253 912.488 390.213 916.968 396.4C921.661 402.587 927.101 405.68 933.288 405.68ZM1182.62 339.76C1185.4 339.76 1187.53 341.147 1189.02 343.92C1190.52 346.693 1191.26 350.213 1191.26 354.48C1191.26 364.72 1188.17 370.8 1181.98 372.72C1169.18 377.2 1155.1 379.76 1139.74 380.4C1135.69 398.32 1127.69 412.72 1115.74 423.6C1103.8 434.267 1090.25 439.6 1075.1 439.6C1062.3 439.6 1051.32 436.507 1042.14 430.32C1033.18 424.133 1026.36 415.92 1021.66 405.68C1016.97 395.44 1014.62 384.347 1014.62 372.4C1014.62 356.187 1017.72 341.787 1023.9 329.2C1030.09 316.4 1038.62 306.48 1049.5 299.44C1060.38 292.187 1072.44 288.56 1085.66 288.56C1101.88 288.56 1114.89 294.213 1124.7 305.52C1134.73 316.613 1140.6 330.373 1142.3 346.8C1152.33 346.16 1164.28 344.027 1178.14 340.4C1179.85 339.973 1181.34 339.76 1182.62 339.76ZM1077.66 405.68C1084.49 405.68 1090.36 402.907 1095.26 397.36C1100.38 391.813 1103.8 383.813 1105.5 373.36C1098.89 368.88 1093.77 363.013 1090.14 355.76C1086.73 348.507 1085.02 340.827 1085.02 332.72C1085.02 329.307 1085.34 325.893 1085.98 322.48H1084.38C1075.85 322.48 1068.7 326.64 1062.94 334.96C1057.4 343.067 1054.62 354.587 1054.62 369.52C1054.62 381.253 1056.86 390.213 1061.34 396.4C1066.04 402.587 1071.48 405.68 1077.66 405.68ZM1345.56 366.64C1348.33 366.64 1350.46 367.92 1351.96 370.48C1353.66 373.04 1354.52 376.56 1354.52 381.04C1354.52 389.573 1352.49 396.187 1348.44 400.88C1339.69 411.547 1330.09 420.72 1319.64 428.4C1309.18 435.867 1298.84 439.6 1288.6 439.6C1272.38 439.6 1260.01 430.107 1251.48 411.12C1242.52 422.427 1234.62 430 1227.8 433.84C1221.18 437.68 1213.4 439.6 1204.44 439.6C1191.42 439.6 1180.65 434.8 1172.12 425.2C1163.8 415.387 1159.64 402.693 1159.64 387.12C1159.64 370.053 1163.26 354.267 1170.52 339.76C1177.77 325.04 1187.69 313.093 1200.28 303.92C1213.08 294.533 1227.37 288.987 1243.16 287.28C1247.21 245.893 1254.89 210.587 1266.2 181.36C1277.72 151.92 1292.76 137.2 1311.32 137.2C1320.49 137.2 1328.06 141.36 1334.04 149.68C1340.22 158 1343.32 170.587 1343.32 187.44C1343.32 211.333 1337.45 239.28 1325.72 271.28C1313.98 303.28 1298.3 336.133 1278.68 369.84C1279.53 382.213 1281.34 391.067 1284.12 396.4C1287.1 401.733 1290.84 404.4 1295.32 404.4C1301.08 404.4 1306.94 401.84 1312.92 396.72C1318.89 391.6 1326.89 383.067 1336.92 371.12C1339.48 368.133 1342.36 366.64 1345.56 366.64ZM1307.8 168.56C1303.74 168.56 1299.69 175.813 1295.64 190.32C1291.58 204.613 1288.06 223.387 1285.08 246.64C1282.3 269.893 1280.28 294.213 1279 319.6C1302.89 267.547 1314.84 225.733 1314.84 194.16C1314.84 186.053 1314.09 179.76 1312.6 175.28C1311.32 170.8 1309.72 168.56 1307.8 168.56ZM1215.64 407.28C1219.69 407.28 1223.74 405.68 1227.8 402.48C1231.85 399.067 1236.97 392.88 1243.16 383.92C1241.02 372.4 1239.96 359.493 1239.96 345.2C1239.96 340.08 1240.17 331.76 1240.6 320.24C1228.86 323.867 1219.05 331.76 1211.16 343.92C1203.48 355.867 1199.64 369.2 1199.64 383.92C1199.64 399.493 1204.97 407.28 1215.64 407.28ZM1440.49 288.88C1445.39 288.88 1448.81 289.52 1450.73 290.8C1452.65 292.08 1453.61 294.213 1453.61 297.2C1453.61 302.32 1450.83 320.56 1445.29 351.92C1440.38 382 1437.5 399.813 1436.65 405.36C1428.75 460.187 1417.87 503.6 1404.01 535.6C1390.14 567.6 1371.69 583.6 1348.65 583.6C1337.77 583.6 1328.91 580.187 1322.09 573.36C1315.26 566.747 1311.84 558 1311.84 547.12C1311.84 537.093 1314.09 526.853 1318.57 516.4C1323.26 505.947 1331.79 493.893 1344.17 480.24C1356.75 466.8 1374.46 451.333 1397.29 433.84L1398.25 426.48C1399.74 418.587 1401.45 407.28 1403.37 392.56C1399.1 407.92 1393.13 419.653 1385.45 427.76C1377.77 435.653 1369.66 439.6 1361.13 439.6C1351.53 439.6 1343.63 435.227 1337.45 426.48C1331.47 417.52 1328.49 406.427 1328.49 393.2C1328.49 377.2 1329.55 362.587 1331.69 349.36C1333.82 335.92 1337.34 321.733 1342.25 306.8C1344.38 300.4 1347.37 295.813 1351.21 293.04C1355.05 290.267 1361.13 288.88 1369.45 288.88C1374.14 288.88 1377.34 289.627 1379.05 291.12C1380.97 292.613 1381.93 294.853 1381.93 297.84C1381.93 299.547 1380.75 305.307 1378.41 315.12C1376.27 323.013 1374.57 330.16 1373.29 336.56C1371.58 345.307 1370.09 353.733 1368.81 361.84C1367.53 369.733 1366.89 376.24 1366.89 381.36C1366.89 389.467 1369.13 393.52 1373.61 393.52C1376.81 393.52 1380.75 390.32 1385.45 383.92C1390.35 377.52 1395.47 367.813 1400.81 354.8C1406.35 341.787 1411.69 325.787 1416.81 306.8C1418.51 300.4 1421.07 295.813 1424.49 293.04C1428.11 290.267 1433.45 288.88 1440.49 288.88ZM1352.17 552.56C1357.5 552.56 1363.47 546.373 1370.09 534C1376.7 521.627 1383.31 501.04 1389.93 472.24C1373.5 486.107 1361.55 498.693 1354.09 510C1346.83 521.52 1343.21 531.547 1343.21 540.08C1343.21 543.707 1343.85 546.693 1345.13 549.04C1346.62 551.387 1348.97 552.56 1352.17 552.56Z" fill="#FC6640"/>
</g>
<defs>
<clipPath id="clip0">
<rect width="1644" height="582" fill="white"/>
</clipPath>
<clipPath id="clip1">
<rect width="511.999" height="511" fill="white" transform="translate(47 35)"/>
</clipPath>
</defs>
</svg>
